HIERARCHY
ROOT Joint1
{
	OFFSET 0.000000 0.000000 0.000000
	CHANNELS 6 Xposition Yposition Zposition Xrotation Yrotation Zrotation
	JOINT Joint2
	{
		OFFSET -0.000000 0.000000 1.456275
		CHANNELS 6 Xposition Yposition Zposition Xrotation Yrotation Zrotation
		JOINT Joint3
		{
			OFFSET -0.000000 0.000002 1.471446
			CHANNELS 6 Xposition Yposition Zposition Xrotation Yrotation Zrotation
			JOINT Joint4
			{
				OFFSET 0.625745 0.000000 0.917755
				CHANNELS 6 Xposition Yposition Zposition Xrotation Yrotation Zrotation
				JOINT Joint5
				{
					OFFSET -0.629534 0.000001 0.940221
					CHANNELS 6 Xposition Yposition Zposition Xrotation Yrotation Zrotation
					JOINT Joint6
					{
						OFFSET -0.000001 0.113772 1.960660
						CHANNELS 6 Xposition Yposition Zposition Xrotation Yrotation Zrotation
						JOINT Joint7
						{
							OFFSET -0.669733 -0.113771 0.388340
							CHANNELS 6 Xposition Yposition Zposition Xrotation Yrotation Zrotation
							End Site
							{
								OFFSET 0.005509 0.005509 0.438980
							}
						}
					}
				}
			}
		}
	}
}
MOTION
Frames: 26
Frame Time: 0.041667
0.000000 0.000000 0.000000 -0.000000 1.019410 24.483807 -0.000000 -0.000000 1.456275 -0.000001 25.247704 -0.000000 -0.000000 0.000002 1.471446 -0.000002 -1.133462 -44.373014 0.625745 0.000000 0.917755 0.000002 160.153005 0.000002 -0.629534 0.000001 0.940221 -0.000002 1.709735 -106.490962 -0.000001 0.113772 1.960660 -88.303882 -164.514846 -0.000001 -0.669733 -0.113771 0.388340 -1.722590 2.594241 -137.501830 
0.000000 0.000000 0.000000 -0.000000 1.019410 24.462000 -0.000000 -0.000000 1.456275 -0.000001 25.185139 -0.000002 -0.000000 0.000002 1.471446 -0.000002 -1.133462 -44.333511 0.625744 0.000000 0.917755 0.000003 160.130630 0.000001 -0.629534 0.000001 0.940221 -0.000001 1.709735 -106.396104 -0.000001 0.113772 1.960661 -88.303882 -164.608843 -0.000000 -0.669733 -0.113771 0.388340 -1.722528 2.595618 -137.579763 
0.000000 0.000000 0.000000 -0.000000 1.019410 24.426654 -0.000000 -0.000000 1.456275 0.000000 25.083772 -0.000000 -0.000000 0.000002 1.471446 -0.000002 -1.133465 -44.269513 0.625745 0.000000 0.917755 0.000005 160.094334 0.000003 -0.629534 0.000001 0.940221 -0.000001 1.709735 -106.242411 -0.000001 0.113772 1.960660 -88.303882 -164.761129 -0.000001 -0.669733 -0.113771 0.388340 -1.722425 2.597857 -137.706012 
0.000000 0.000000 0.000000 -0.000000 1.019410 24.378610 -0.000000 0.000000 1.456275 -0.000001 24.945982 0.000000 -0.000000 0.000002 1.471446 -0.000002 -1.133462 -44.182520 0.625745 0.000000 0.917755 0.000004 160.045034 -0.000000 -0.629534 0.000001 0.940221 -0.000002 1.709735 -106.033516 -0.000001 0.113772 1.960660 -88.303882 -164.968138 0.000000 -0.669733 -0.113771 0.388340 -1.722277 2.600899 -137.877655 
0.000000 0.000000 0.000000 -0.000000 1.019410 24.318699 -0.000000 0.000000 1.456275 0.000000 24.774141 0.000001 -0.000000 0.000002 1.471446 -0.000001 -1.133463 -44.074029 0.625744 0.000000 0.917755 0.000004 159.983521 -0.000002 -0.629534 0.000001 0.940221 0.000001 1.709735 -105.772986 -0.000001 0.113772 1.960660 -88.303882 -165.226292 0.000002 -0.669733 -0.113771 0.388341 -1.722078 2.604693 -138.091685 
0.000000 0.000000 0.000000 -0.000000 1.019410 24.247745 -0.000000 -0.000000 1.456275 0.000000 24.570629 -0.000002 -0.000000 0.000002 1.471446 -0.000001 -1.133464 -43.945536 0.625744 0.000000 0.917755 0.000002 159.910697 -0.000001 -0.629534 0.000001 0.940221 0.000001 1.709735 -105.464439 -0.000001 0.113772 1.960660 -88.303882 -165.532011 0.000000 -0.669733 -0.113771 0.388340 -1.721825 2.609186 -138.345181 
0.000000 0.000000 0.000000 -0.000000 1.019410 24.166577 -0.000000 0.000000 1.456275 -0.000001 24.337829 0.000002 -0.000000 0.000002 1.471446 -0.000002 -1.133462 -43.798561 0.625745 0.000000 0.917755 0.000006 159.827369 -0.000000 -0.629534 0.000001 0.940221 0.000001 1.709736 -105.111502 -0.000001 0.113772 1.960660 -88.303882 -165.881758 -0.000001 -0.669733 -0.113771 0.388340 -1.721512 2.614321 -138.635164 
0.000000 0.000000 0.000000 -0.000000 1.019410 24.076028 -0.000000 0.000000 1.456275 0.000001 24.078116 -0.000000 -0.000000 0.000002 1.471446 -0.000001 -1.133462 -43.634585 0.625745 0.000000 0.917755 0.000004 159.734410 0.000001 -0.629534 0.000001 0.940220 -0.000001 1.709736 -104.717749 -0.000001 0.113772 1.960661 -88.303882 -166.271926 -0.000001 -0.669733 -0.113771 0.388340 -1.721132 2.620052 -138.958669 
0.000000 0.000000 0.000000 -0.000000 1.019410 23.976925 -0.000000 0.000000 1.456275 0.000000 23.793864 -0.000001 -0.000000 0.000002 1.471446 -0.000002 -1.133464 -43.455125 0.625745 0.000001 0.917755 0.000004 159.632681 0.000001 -0.629533 0.000001 0.940221 0.000002 1.709735 -104.286791 -0.000001 0.113772 1.960660 -88.303882 -166.698963 -0.000001 -0.669733 -0.113771 0.388340 -1.720678 2.626317 -139.312746 
0.000000 0.000000 0.000000 -0.000000 1.019410 23.870096 -0.000000 0.000000 1.456275 -0.000001 23.487455 -0.000001 -0.000000 0.000002 1.471445 -0.000001 -1.133464 -43.261670 0.625744 0.000000 0.917756 0.000004 159.523016 -0.000000 -0.629534 0.000001 0.940221 -0.000000 1.709736 -103.822263 -0.000001 0.113772 1.960660 -88.303882 -167.159277 0.000001 -0.669733 -0.113771 0.388340 -1.720146 2.633070 -139.694417 
0.000000 0.000000 0.000000 -0.000000 1.019410 23.756370 -0.000000 0.000000 1.456275 -0.000000 23.161269 0.000000 -0.000000 0.000002 1.471446 -0.000002 -1.133464 -43.055737 0.625744 0.000000 0.917755 0.000003 159.406274 -0.000001 -0.629534 0.000001 0.940221 0.000000 1.709735 -103.327730 -0.000001 0.113772 1.960660 -88.303882 -167.649302 0.000001 -0.669733 -0.113771 0.388340 -1.719529 2.640252 -140.100731 
0.000000 0.000000 0.000000 -0.000000 1.019410 23.636577 -0.000000 0.000000 1.456275 -0.000001 22.817681 0.000002 -0.000000 0.000002 1.471446 -0.000002 -1.133463 -42.838813 0.625745 0.000000 0.917755 0.000005 159.283304 0.000001 -0.629534 0.000001 0.940220 -0.000000 1.709735 -102.806819 -0.000001 0.113772 1.960661 -88.303882 -168.165486 0.000001 -0.669733 -0.113771 0.388340 -1.718825 2.647815 -140.528711 
0.000000 0.000000 0.000000 -0.000000 1.019410 23.511548 -0.000000 -0.000000 1.456275 -0.000000 22.459067 -0.000001 -0.000000 0.000002 1.471446 -0.000001 -1.133466 -42.612406 0.625744 0.000000 0.917755 0.000005 159.154951 -0.000000 -0.629534 0.000001 0.940221 0.000001 1.709735 -102.263129 -0.000001 0.113772 1.960660 -88.303882 -168.704224 0.000000 -0.669733 -0.113771 0.388340 -1.718030 2.655703 -140.975432 
0.000000 0.000000 0.000000 -0.000000 1.019410 23.381339 -0.000000 0.000000 1.456275 0.000000 22.085601 0.000001 -0.000000 0.000002 1.471446 -0.000001 -1.133462 -42.376618 0.625744 0.000000 0.917755 0.000003 159.021284 0.000001 -0.629534 0.000001 0.940221 0.000001 1.709735 -101.696927 -0.000001 0.113772 1.960660 -88.303882 -169.265270 0.000001 -0.669733 -0.113771 0.388340 -1.717136 2.663911 -141.440637 
0.000000 0.000000 0.000000 -0.000000 1.019410 23.242944 -0.000000 -0.000000 1.456275 0.000001 21.688654 -0.000002 -0.000000 0.000002 1.471446 -0.000003 -1.133464 -42.126004 0.625745 0.000000 0.917755 0.000002 158.879216 -0.000000 -0.629534 0.000001 0.940221 0.000001 1.709735 -101.095098 -0.000001 0.113772 1.960660 -88.303882 -169.861614 0.000001 -0.669733 -0.113771 0.388341 -1.716113 2.672625 -141.935129 
0.000000 0.000000 0.000000 -0.000000 1.019410 23.092574 -0.000000 0.000000 1.456275 -0.000001 21.257364 -0.000000 -0.000000 0.000002 1.471446 -0.000001 -1.133461 -41.853709 0.625745 0.000000 0.917755 0.000004 158.724854 0.000001 -0.629534 0.000001 0.940220 0.000000 1.709736 -100.441244 -0.000001 0.113772 1.960661 -88.303882 -170.509553 0.000001 -0.669733 -0.113771 0.388340 -1.714916 2.682085 -142.472364 
0.000000 0.000000 0.000000 -0.000000 1.019410 22.926447 -0.000000 0.000000 1.456275 -0.000001 20.780898 0.000001 -0.000000 0.000002 1.471445 -0.000001 -1.133461 -41.552890 0.625745 0.000000 0.917755 0.000003 158.554331 -0.000000 -0.629534 0.000001 0.940221 0.000002 1.709736 -99.718870 -0.000001 0.113772 1.960660 -88.303882 -171.225329 0.000000 -0.669733 -0.113771 0.388341 -1.713491 2.692520 -143.065894 
0.000000 0.000000 0.000000 -0.000000 1.019410 22.740797 -0.000000 0.000000 1.456275 -0.000000 20.248408 -0.000001 -0.000001 0.000002 1.471446 -0.000002 -1.133464 -41.216698 0.625745 0.000000 0.917755 0.000002 158.363742 0.000001 -0.629534 0.000001 0.940220 -0.000001 1.709735 -98.911569 -0.000001 0.113772 1.960660 -88.303882 -172.025295 -0.000000 -0.669733 -0.113771 0.388340 -1.711770 2.704166 -143.729228 
0.000000 0.000000 0.000000 -0.000000 1.019410 22.531831 -0.000000 0.000000 1.456275 -0.000000 19.649047 0.000000 -0.000000 0.000002 1.471446 -0.000001 -1.133462 -40.838295 0.625744 0.000000 0.917755 0.000004 158.149233 0.000000 -0.629534 0.000001 0.940221 0.000001 1.709735 -98.002887 -0.000001 0.113773 1.960661 -88.303882 -172.925719 0.000000 -0.669733 -0.113771 0.388340 -1.709672 2.717247 -144.475863 
0.000000 0.000000 0.000000 -0.000000 1.019410 22.298343 -0.000000 0.000000 1.456275 0.000000 18.979366 -0.000001 -0.000000 0.000002 1.471446 -0.000001 -1.133464 -40.415489 0.625745 0.000000 0.917755 0.000003 157.909548 -0.000001 -0.629534 0.000001 0.940221 0.000001 1.709735 -96.987587 -0.000001 0.113772 1.960661 -88.303882 -173.931778 0.000002 -0.669733 -0.113771 0.388340 -1.707125 2.731830 -145.310103 
0.000000 0.000000 0.000000 -0.000000 1.019410 22.049440 -0.000000 -0.000000 1.456275 0.000000 18.265468 0.000001 -0.000000 0.000002 1.471446 -0.000001 -1.133464 -39.964772 0.625744 0.000000 0.917755 0.000003 157.654044 0.000000 -0.629534 0.000001 0.940221 -0.000000 1.709736 -95.905254 -0.000001 0.113772 1.960660 -88.303882 -175.004282 0.000001 -0.669733 -0.113771 0.388340 -1.704177 2.747335 -146.199475 
0.000000 0.000000 0.000000 -0.000000 1.019410 21.796804 -0.000000 0.000000 1.456275 -0.000000 17.540855 -0.000002 -0.000000 0.000002 1.471446 -0.000002 -1.133464 -39.507283 0.625745 0.000000 0.917755 0.000003 157.394715 0.000001 -0.629534 0.000001 0.940221 -0.000001 1.709736 -94.806673 -0.000001 0.113772 1.960660 -88.303882 -176.092864 0.000001 -0.669733 -0.113771 0.388340 -1.700939 2.763022 -147.102153 
0.000000 0.000000 0.000000 -0.000000 1.019410 21.552112 -0.000000 0.000000 1.456275 0.000000 16.839031 -0.000000 -0.000000 0.000002 1.471446 -0.000002 -1.133462 -39.064184 0.625745 0.000000 0.917755 0.000002 157.143528 0.000001 -0.629534 0.000001 0.940221 0.000001 1.709735 -93.742646 -0.000001 0.113772 1.960660 -88.303882 -177.147213 0.000001 -0.669733 -0.113771 0.388340 -1.697566 2.778166 -147.976472 
0.000000 0.000000 0.000000 -0.000000 1.019410 21.322136 -0.000000 -0.000000 1.456275 -0.000000 16.179414 -0.000001 -0.000000 0.000002 1.471446 -0.000001 -1.133464 -38.647737 0.625745 0.000000 0.917755 0.000003 156.907450 -0.000003 -0.629534 0.000001 0.940221 0.000002 1.709735 -92.742610 -0.000001 0.113772 1.960661 -88.303882 -178.138136 0.000001 -0.669733 -0.113771 0.388340 -1.694187 2.792350 -148.798226 
0.000000 0.000000 0.000000 -0.000000 1.019410 21.094032 -0.000000 0.000000 1.456275 0.000000 15.525158 0.000002 -0.000000 0.000002 1.471445 -0.000000 -1.133463 -38.234661 0.625744 0.000000 0.917755 0.000004 156.673283 -0.000002 -0.629534 0.000001 0.940221 0.000000 1.709736 -91.750696 -0.000001 0.113772 1.960660 -88.303882 -179.121042 0.000001 -0.669733 -0.113771 0.388340 -1.690633 2.806370 -149.613299 
0.000000 0.000000 0.000000 -0.000000 1.019410 20.850032 -0.000000 0.000000 1.456275 -0.000000 14.825334 0.000001 -0.000000 0.000002 1.471445 -0.000001 -1.133463 -37.792837 0.625745 0.000000 0.917755 0.000004 156.422820 -0.000000 -0.629534 0.000001 0.940221 0.000000 1.709737 -90.689688 -0.000001 0.113772 1.960660 -88.303882 -180.172399 0.000001 -0.669733 -0.113771 0.388341 -1.686613 2.821310 -150.485187 
